{
	"asset":{
		"version":"2.0",
		"generator":"Created using the official Cinema 4D glTF Exporter 1.000x284978"
	},
	"scenes":[{
		"nodes":[0]
	}],
	"nodes":[{
		"name":"Areas",
		"mesh":0
	}],
	"meshes":[{
		"name":"Areas",
		"primitives":[{
			"attributes":{
				"POSITION":1,
				"NORMAL":2
			},
			"indices":0,
			"material":0
		}]
	}],
	"accessors":[{
		"bufferView":0,
		"type":"SCALAR",
		"componentType":5125,
		"count":175986,
		"byteOffset":0,
		"min":[0],
		"max":[96035]
	},
	{
		"bufferView":1,
		"type":"VEC3",
		"componentType":5126,
		"count":96036,
		"byteOffset":0,
		"min":[-3410.685302734375,
		0.0,
		-2158.217041015625],
		"max":[991.1880493164063,
		442.0,
		3034.887451171875]
	},
	{
		"bufferView":1,
		"type":"VEC3",
		"componentType":5126,
		"count":96036,
		"byteOffset":12,
		"min":[-1.0,
		0.0,
		-1.0],
		"max":[1.0,
		1.0,
		1.0]
	}],
	"bufferViews":[{
		"buffer":0,
		"byteOffset":0,
		"byteLength":703944,
		"target":34963
	},
	{
		"buffer":0,
		"byteOffset":703944,
		"byteLength":2304864,
		"target":34962,
		"byteStride":24
	}],
	"buffers":[{
		"uri":"data:application/octet-stream;base64,",
		"byteLength":3008808
	}],
	"materials":[{
		"pbrMetallicRoughness":{
			"baseColorFactor":[1.0,
			1.0,
			1.0,
			1.0],
			"metallicFactor":0.0,
			"roughnessFactor":0.5
		},
		"emissiveFactor":[0.0,
		0.0,
		0.0],
		"alphaMode":"OPAQUE",
		"doubleSided":false,
		"name":"None"
	}]
}